<svg width="24" height="24" viewBox="0 0 24 24" fill="none" xmlns="http://www.w3.org/2000/svg">
<path fill-rule="evenodd" clip-rule="evenodd" d="M8.95309 19.7114C8.83632 19.9617 8.53879 20.0699 8.28856 19.9531C8.03832 19.8363 7.93013 19.5388 8.04691 19.2886L15.0469 4.28855C15.1637 4.03832 15.4612 3.93013 15.7114 4.04691C15.9617 4.16368 16.0699 4.4612 15.9531 4.71144L8.95309 19.7114ZM7.87963 13.1746C8.05934 13.3843 8.03506 13.6999 7.8254 13.8796C7.61573 14.0593 7.30008 14.0351 7.12037 13.8254L4.12037 10.3254C3.95988 10.1381 3.95988 9.86185 4.12037 9.6746L7.12037 6.1746C7.30008 5.96494 7.61573 5.94066 7.8254 6.12037C8.03506 6.30008 8.05934 6.61573 7.87963 6.82539L5.15854 10L7.87963 13.1746ZM16.1746 10.1204C15.9649 10.3001 15.9407 10.6157 16.1204 10.8254L18.8415 14L16.1204 17.1746C15.9407 17.3843 15.9649 17.6999 16.1746 17.8796C16.3843 18.0593 16.6999 18.0351 16.8796 17.8254L19.8796 14.3254C20.0401 14.1381 20.0401 13.8618 19.8796 13.6746L16.8796 10.1746C16.6999 9.96494 16.3843 9.94066 16.1746 10.1204Z" fill="black"/>
</svg>
